<svg xmlns="http://www.w3.org/2000/svg" width="1000" height="1200" viewBox="0 0 1000 1200"><defs><radialGradient id="g"><stop stop-color="#544028"/><stop offset="1" stop-color="#070707"/></radialGradient><linearGradient id="l" x2="0" y2="1"><stop stop-color="#e9b949" stop-opacity=".12"/><stop offset="1" stop-color="#e9b949" stop-opacity=".6"/></linearGradient></defs><path fill="#070707" d="M0 0h1000v1200H0z"/><ellipse cx="1080" cy="750" rx="650" ry="800" fill="url(#g)"/><g fill="none" stroke="url(#l)" stroke-width="1.5"><path d="M920 80C610 380 1160 650 780 1100"/><path d="M951 80C641 380 1191 650 811 1100"/><path d="M982 80C672 380 1222 650 842 1100"/><ellipse cx="1070" cy="620" rx="320" ry="440"/><ellipse cx="1070" cy="620" rx="285" ry="405"/><ellipse cx="1070" cy="620" rx="250" ry="370"/></g><path d="M40 1148H960" stroke="#e9b949" stroke-opacity=".35"/><path d="M930 1105h13v13h-13z" fill="#e9b949" transform="rotate(45 936 1111)"/></svg>